<svg xmlns="http://www.w3.org/2000/svg" height="1024" preserveAspectRatio="none" style="display: block;" version="1.1" viewBox="0 0 2048 2048" width="1024">
<defs>
	<linearGradient gradientUnits="userSpaceOnUse" id="Gradient1" x1="1242.74" x2="1233.34" y1="1701.92" y2="1717.96">
		<stop class="stop0" offset="0" stop-color="rgb(43,41,43)" stop-opacity="1"></stop>
		<stop class="stop1" offset="1" stop-color="rgb(30,33,51)" stop-opacity="1"></stop>
	</linearGradient>
	<linearGradient gradientUnits="userSpaceOnUse" id="Gradient2" x1="241.231" x2="264.333" y1="827.869" y2="829.361">
		<stop class="stop0" offset="0" stop-color="rgb(42,40,36)" stop-opacity="1"></stop>
		<stop class="stop1" offset="1" stop-color="rgb(41,42,51)" stop-opacity="1"></stop>
	</linearGradient>
	<linearGradient gradientUnits="userSpaceOnUse" id="Gradient3" x1="269.941" x2="289.754" y1="979.822" y2="992.508">
		<stop class="stop0" offset="0" stop-color="rgb(37,36,29)" stop-opacity="1"></stop>
		<stop class="stop1" offset="1" stop-color="rgb(46,45,50)" stop-opacity="1"></stop>
	</linearGradient>
</defs>
<path d="M 0 0 L 2048 0 L 2048 2048 L 0 2048 L 0 0 z" fill="rgb(49,49,60)" transform="translate(0,0)"></path>
<path d="M 1613.77 86.4594 C 1724.2 87.7548 1819.51 134.612 1893.26 216.379 C 1922.8 249.119 1953.25 291.12 1972.66 330.653 C 1941.41 331.539 1906.66 330.679 1875.09 330.432 C 1806.1 329.779 1737.11 328.727 1668.13 327.274 L 1252.82 321.811 C 1247.56 321.748 1238.48 321.767 1234.64 325.518 C 1234.65 334.924 1246.44 333.063 1253.85 333.181 L 1971.48 341.706 C 1976.49 341.737 1982.51 342.639 1982.4 348.791 C 1977.22 359.679 1963.77 358.043 1953.98 357.495 C 1949.25 413.4 1946.88 473.917 1943.05 530.455 L 1919.62 860.499 C 1907.68 1016.68 1896.74 1172.94 1886.81 1329.27 C 1896.95 1339.99 1905.95 1347.74 1916.7 1357.75 C 1908.68 1362.5 1894.76 1369.84 1886.4 1373.71 C 1872.49 1540.17 1859.81 1706.73 1848.35 1873.38 C 1821.29 1870.67 1795.48 1865.04 1768.74 1860.46 L 1664.16 1843.48 C 1669.9 1768.38 1672.27 1692.05 1676.16 1616.84 C 1681.85 1516.56 1686.89 1416.26 1691.26 1315.92 L 1705.12 1316.02 C 1701.29 1405.06 1696.71 1494.06 1691.37 1583.02 L 1680.01 1831.69 C 1697.75 1833.31 1720.27 1837.24 1738.17 1840.05 C 1770.36 1845.33 1802.6 1850.28 1834.89 1854.92 C 1838.28 1832.36 1838.93 1795.93 1840.92 1771.56 C 1847.1 1700.24 1852.35 1628.85 1856.65 1557.39 C 1858.85 1521.88 1861.48 1486.39 1864.55 1450.94 C 1866.32 1429.17 1869.17 1401.93 1869.04 1380.55 C 1842.16 1345.31 1790.45 1316.91 1747.68 1307.57 C 1677.71 1292.29 1620.43 1308.62 1556.52 1334.01 C 1443.21 1379.02 1341.78 1448.01 1242.84 1518.14 C 1202.24 1546.92 1163.29 1575.63 1121.43 1602.15 C 977.181 1695.13 817.926 1738.12 648.139 1697.09 C 547.796 1672.83 416.416 1611.77 446.929 1483.46 C 459.984 1428.57 494.056 1401.46 539.735 1373 L 551.721 1381.35 C 510.117 1407.46 473.64 1440.25 462.118 1490.33 C 435.693 1605.19 571.57 1666.74 662.861 1686.05 C 672.039 1688 729.133 1699.37 734.819 1695.71 C 724.751 1690.02 686.125 1684.12 672.028 1681 C 584.344 1661.57 448.106 1608.51 469.152 1495.66 C 478.782 1444.03 517.585 1412.41 559.151 1384.26 C 575.742 1390.67 592.021 1396.89 609.598 1401.2 C 703.648 1424.24 811.911 1425.45 906.761 1406.64 C 930.426 1401.95 955.512 1393.62 978.742 1386.98 C 985.784 1384.96 992.123 1380.38 999.108 1379.14 C 1024.95 1374.52 1051.04 1370.56 1076.97 1366.59 C 1114.84 1360.93 1152.56 1354.2 1190.06 1346.41 C 1247.45 1333.79 1304.69 1320.46 1361.75 1306.43 C 1466.77 1280.83 1616.09 1239.34 1724.54 1261.18 C 1768.4 1270.01 1826.87 1300.96 1859.57 1330.67 C 1864.77 1335.39 1876.65 1344.62 1880.06 1350.11 C 1880.22 1353.75 1880.81 1352.3 1878.73 1354.78 C 1875.19 1354.59 1864.92 1345.85 1861.1 1343.02 C 1849.16 1334.11 1837.01 1325.49 1824.66 1317.16 C 1654.35 1204.4 1425.55 1334.16 1272.86 1421.31 C 1154.53 1488.84 1039.15 1545.86 904.213 1572.92 C 813.087 1590.86 675.023 1601.41 597.277 1533.51 C 591.336 1528.32 584.319 1516.28 579.949 1509.29 C 579.991 1511.65 580.069 1514.01 580.185 1516.36 C 583.603 1590.19 639.356 1645.98 704.951 1671.99 C 766.343 1696.33 830.754 1693.31 894.173 1680.66 C 1087.13 1642.13 1231.19 1499.78 1395.31 1402.23 C 1479.42 1352.24 1581.39 1299.27 1680.98 1290.67 C 1754.71 1284.3 1821.15 1319.39 1874.82 1368.1 C 1883.17 1362.91 1890.58 1357.54 1898.55 1351.83 C 1887.7 1344.41 1878.28 1334.69 1868.49 1325.96 C 1849.57 1309.11 1829.57 1293.02 1807.46 1280.53 C 1775.84 1262.68 1740.46 1248.7 1704.53 1243.04 C 1618.9 1229.56 1473.13 1261.15 1388.81 1284.38 C 1388.89 1250.69 1394 1198.38 1396.46 1164.43 L 1409.89 967.401 L 1436.98 576.324 C 1441.99 507.133 1446.17 435.698 1452.63 366.841 L 1731.04 371.578 L 1701.03 869.624 L 1692.32 1025.8 C 1690.97 1051.01 1690.46 1082.25 1687.86 1106.47 C 1680.02 1098.8 1672.6 1090.3 1667.27 1080.66 C 1650.82 1050.91 1644.19 936.402 1640.98 898.212 C 1637.86 861.129 1635.2 823.524 1629.47 786.739 C 1627.48 774.661 1624.61 762.744 1620.88 751.084 C 1617.22 739.843 1607.86 719.789 1607.82 709.482 C 1607.74 687.563 1616.41 660.551 1622.47 639.497 C 1608.63 638.702 1559.7 627.281 1551.59 630.233 C 1548.62 646.872 1542.47 650.113 1527.99 658.07 C 1528.08 667.475 1528.33 674.537 1526.98 683.914 C 1524.2 683.109 1520.21 681.567 1517.9 683.548 C 1518.81 686.913 1518.8 687.007 1518.89 690.509 C 1514.6 698.036 1499.82 693.309 1516 709.36 C 1517.15 713.833 1516.43 713.221 1514.77 718.47 C 1538.69 727.773 1548.77 727.47 1573.7 724.525 L 1574.64 743.285 C 1541.16 774.872 1542.26 778.792 1536.37 823.69 C 1531.28 863.207 1526.97 902.821 1523.45 942.508 C 1522.15 956.781 1519.63 996.185 1516.64 1007.67 C 1530.16 1032.39 1549 1044.95 1571.3 1060.7 C 1570.65 1079.96 1567.54 1106.71 1565.93 1126.53 L 1556.88 1240.36 C 1573.45 1236.79 1590.2 1234.11 1607.06 1232.33 C 1605.29 1178.78 1606.12 1124.36 1601.91 1070.89 C 1575.98 1051.25 1544.62 1034.37 1525.75 1007.76 L 1527.51 995.6 C 1552.12 1002.55 1562.12 1019.43 1579.27 1036.85 C 1587.56 1045.28 1595.81 1053.29 1603.58 1062.24 C 1599.74 1043.59 1608.02 1005.89 1610.33 985.215 C 1613.24 959.205 1615.92 929.675 1621.09 904.244 C 1624.24 931.103 1627.01 958.007 1629.39 984.946 C 1631.68 1009.68 1633.29 1037.58 1639.76 1061.43 C 1645.93 1084.18 1666 1119.45 1687.13 1131.14 L 1681.97 1230.4 C 1686.62 1231.33 1690.2 1231.65 1694.88 1232.09 C 1697.63 1200 1698.3 1163.4 1700.11 1131 L 1715 865.078 C 1721.06 773.582 1726.63 682.054 1731.7 590.498 C 1737.03 517.71 1741.19 444.839 1744.15 371.916 L 1759.11 371.979 C 1759.19 383.24 1757.78 399.423 1757.06 411.027 L 1751.6 494.124 L 1735.09 775.079 L 1717.13 1069.02 L 1711.7 1165.82 C 1710.57 1187.12 1709.62 1213.39 1707.03 1234.24 C 1779.26 1245.38 1818.55 1272.27 1872.59 1317.49 L 1907.94 790.071 L 1925.49 560.252 C 1928.21 523.11 1932.58 479.676 1933.14 443.022 C 1899.16 443.092 1862.32 440.893 1828.17 439.99 C 1814.83 439.638 1778.41 438.612 1766.13 436.709 L 1764.81 434.802 C 1764.87 431.011 1764.21 431.06 1766.07 428.602 C 1775.9 427.95 1785.02 429.987 1794.71 430.526 C 1804.45 431.068 1814.38 431.477 1824.14 431.915 L 1893.66 434.536 C 1906.51 435.074 1921.43 435.366 1933.98 437.325 C 1936.11 411.725 1935.61 387.668 1938.4 360.888 C 1863.57 361.178 1790.09 359.14 1715.33 358.029 L 1217.06 350.059 C 1224.07 317.232 1261.94 268.412 1284.91 243.829 C 1371.1 151.567 1486.36 90.8569 1613.77 86.4594 z" fill="rgb(254,223,118)" transform="translate(0,0)"></path>
<path d="M 1605.13 104.437 C 1676.39 99.9667 1751.1 126.617 1809.19 166.835 C 1853.94 197.766 1892.29 237.049 1922.14 282.524 C 1927.1 290.072 1943.69 310.142 1924.22 310.411 C 1913.32 310.561 1902.42 310.328 1891.51 310.263 L 1830.49 310.043 C 1755.07 310.021 1679.66 309.293 1604.25 307.859 L 1355.51 304.536 C 1330.56 304.08 1305.58 304.266 1280.64 303.848 C 1278.39 303.514 1269 303.658 1269.19 300.497 C 1269.42 295.788 1274.25 289.699 1277.39 286.154 C 1287.09 275.199 1296.45 263.15 1306.49 252.56 C 1384.94 169.83 1489.63 110.122 1605.13 104.437 z" fill="rgb(49,49,60)" transform="translate(0,0)"></path>
<path d="M 1430.27 169.781 L 1431.49 170.195 C 1435.28 175.186 1449.82 207.598 1452.92 214.549 L 1481.78 278.542 C 1479.28 282.743 1476.64 288.534 1474.45 293.025 L 1431.75 292.615 C 1430.68 292.61 1427.64 292.541 1427.07 291.36 C 1412.63 261.255 1396.34 232.17 1380.58 202.73 C 1397.07 188.331 1411.5 180.237 1430.27 169.781 z" fill="rgb(254,223,118)" transform="translate(0,0)"></path>
<path d="M 1789.28 169.432 C 1802.73 174.76 1829.05 197.927 1840.54 208.363 C 1823 236.556 1805.39 262.61 1788.66 291.353 C 1784.12 300.707 1779.55 298.499 1769.97 298.113 C 1760.88 283.789 1752.44 274.429 1741.34 261.7 C 1758.68 232.182 1771.89 199.862 1789.28 169.432 z" fill="rgb(254,223,118)" transform="translate(0,0)"></path>
<path d="M 1497.02 138.106 C 1498.15 139.453 1524.59 226.59 1528.07 237.12 C 1511.69 248.624 1504.24 255.098 1490.45 269.092 C 1488.46 265.947 1486.73 262.037 1485.1 258.646 C 1471.45 226.063 1457.23 195.477 1442.4 163.422 C 1459.06 152.988 1478.77 145.413 1497.02 138.106 z" fill="rgb(254,223,118)" transform="translate(0,0)"></path>
<path d="M 1719.98 134.517 C 1723.61 136.347 1728.71 138.3 1732.55 139.857 C 1748.99 146.535 1763.78 154.18 1779 163.317 C 1775.03 171.616 1769.75 180.275 1765.62 188.765 C 1756.97 206.548 1748.45 224.382 1739.94 242.227 L 1734.24 254.32 C 1721.56 245.134 1708.12 237.035 1694.08 230.109 C 1700.24 202.526 1710.78 160.726 1719.98 134.517 z" fill="rgb(254,223,118)" transform="translate(0,0)"></path>
<path d="M 1600.35 256.368 C 1608.15 255.025 1626.1 255.601 1634.08 256.733 C 1666.79 261.372 1694.28 269.991 1715.21 296.234 C 1692.55 296.243 1669.9 295.893 1647.25 295.183 L 1527.55 293.981 C 1548.54 271.833 1569.67 260.132 1600.35 256.368 z" fill="rgb(254,223,118)" transform="translate(0,0)"></path>
<path d="M 1558.58 121.279 C 1563 120.655 1561.23 120.144 1564.56 121.63 C 1566.76 129.625 1568.71 147.043 1570.01 156.072 C 1573.1 176.509 1575.93 196.986 1578.48 217.497 C 1572.26 219.242 1538.41 231.205 1537.27 230.952 L 1536.13 227.787 C 1527.08 197.432 1518.71 164.134 1508.76 134.425 C 1524.77 128.264 1541.75 124.377 1558.58 121.279 z" fill="rgb(254,223,118)" transform="translate(0,0)"></path>
<path d="M 1648.97 118.784 C 1671.38 121.334 1686.19 124.789 1707.44 130.963 C 1699.99 158.665 1693.24 186.549 1687.2 214.59 L 1684.61 226.042 C 1668.03 220.196 1659.22 217.59 1641.86 214.5 C 1643.94 185.079 1645.69 147.526 1648.97 118.784 z" fill="rgb(254,223,118)" transform="translate(0,0)"></path>
<path d="M 1610.23 226.42 C 1626.63 225.416 1643.1 226.939 1659.04 230.934 C 1697.75 240.945 1731.98 262.018 1752.55 297.05 C 1745.96 296.982 1739.23 296.756 1732.62 296.607 C 1731.4 295.05 1730.16 293.506 1728.9 291.975 C 1704.51 262.3 1671.05 248.2 1633.25 244.483 C 1582.87 241.383 1543.3 252.562 1512.32 294.023 C 1504.06 293.637 1496.78 293.792 1488.5 293.983 C 1516.92 248.733 1557.73 229.545 1610.23 226.42 z" fill="rgb(254,232,125)" transform="translate(0,0)"></path>
<path d="M 1589.52 117.423 C 1601.79 116.253 1625.74 117.012 1637.96 117.842 C 1636.86 126.19 1631.32 210.814 1630.13 213.293 L 1627.25 213.489 C 1614.78 213.819 1601.77 214.249 1589.44 216.088 C 1585.86 186.404 1582.17 147.245 1576.43 118.257 L 1589.52 117.423 z" fill="rgb(254,223,118)" transform="translate(0,0)"></path>
<path d="M 1370.95 209.852 C 1374.83 212.55 1411.18 284.85 1414.39 292.626 C 1399.38 293.07 1381.39 292.359 1366.15 292.139 L 1345.33 291.81 C 1338.2 281.648 1329.52 265.614 1322.15 254.156 C 1337.56 237.426 1353.23 224.026 1370.95 209.852 z" fill="rgb(254,223,118)" transform="translate(0,0)"></path>
<path d="M 1848.94 216.507 C 1857.19 220.879 1883.61 252.287 1890.37 261.491 C 1883.96 271.667 1867.08 289.682 1858.28 298.292 L 1840.26 298.063 L 1797.8 297.689 C 1802.93 287.133 1814.49 270.683 1821.38 260.203 C 1830.72 245.737 1839.91 231.171 1848.94 216.507 z" fill="rgb(254,223,118)" transform="translate(0,0)"></path>
<path d="M 1313.31 262.876 C 1320.15 268.906 1325.52 282.831 1328.94 291.169 L 1310.73 290.72 L 1292.31 289.901 C 1296.56 280.271 1305.73 270.086 1313.31 262.876 z" fill="rgb(254,232,125)" transform="translate(0,0)"></path>
<path d="M 1898.85 272.752 C 1903.55 277.091 1912.19 291.876 1915.67 297.868 L 1894.79 297.922 L 1875.93 297.973 C 1883.8 288.434 1890 281.394 1898.85 272.752 z" fill="rgb(254,232,125)" transform="translate(0,0)"></path>
<path d="M 1583.33 1269.35 C 1586.16 1269.05 1587.78 1268.68 1590.59 1269.3 C 1585.13 1272.02 1563.03 1275.78 1555.69 1277.43 C 1539.77 1281.17 1523.9 1285.13 1508.1 1289.31 C 1478.36 1297.27 1448.63 1305.96 1418.84 1313.65 C 1348.02 1331.91 1276.87 1348.85 1205.41 1364.45 C 1125.16 1383.07 1044.11 1398.12 962.515 1409.56 C 958.475 1410.25 957.315 1410.35 953.223 1410.37 L 953.646 1409.64 C 965.481 1405.97 981.358 1403.64 994.012 1400.55 C 1050.34 1386.84 1107.58 1376.38 1164.05 1363.03 L 1367.04 1315.2 C 1440.88 1297.28 1506.96 1279.78 1583.33 1269.35 z" fill="rgb(49,49,60)" transform="translate(0,0)"></path>
<path d="M 1581.57 571.293 C 1628.14 568.974 1623.41 594.88 1616.56 631.468 L 1589.24 627.402 C 1584.23 626.214 1561.99 623.871 1556.02 623.11 C 1555.91 622.856 1555.8 622.601 1555.69 622.346 L 1555.13 621.083 C 1552.31 614.707 1551.15 613.134 1547.25 607.552 C 1551.78 586.718 1559.4 574.273 1581.57 571.293 z" fill="rgb(49,49,60)" transform="translate(0,0)"></path>
<path d="M 1567.94 553.306 C 1597.25 552.286 1630.86 557.872 1654.69 576.267 C 1671.16 588.988 1674.43 602.42 1676.79 621.563 C 1660.08 579.931 1636.34 565.346 1591.23 560.593 C 1525.34 553.236 1534.82 610.743 1512.88 652.03 C 1513.62 639.667 1514.93 627.582 1518.28 615.612 C 1526.76 585.311 1531.73 558.127 1567.94 553.306 z" fill="rgb(49,49,60)" transform="translate(0,0)"></path>
<path d="M 1061.78 453.162 C 1088.24 404.733 1116.61 376.082 1154.99 338.181 C 1177.22 315.898 1200.11 294.281 1223.63 273.361 C 1234.75 263.41 1261.96 238.377 1273.36 230.911 C 1269.01 236.858 1263.22 244.705 1258.68 250.148 C 1244.45 267.217 1194.99 340.765 1197.4 360.513 C 1200.42 363.142 1204.8 362.827 1209.09 362.998 C 1205.09 396.927 1204.64 439.098 1202.48 474.067 C 1197.17 551.899 1192.35 629.764 1188.04 707.658 L 1146.52 1338.59 C 1097.61 1347.12 1058.05 1354.37 1007.89 1360.91 C 995.304 1316.36 956.714 1301.2 917.896 1286.63 C 916.311 1286.04 913.272 1281.97 912.237 1280.81 C 894.678 1262.91 860.09 1255.94 836.956 1252.25 C 863.084 1217.52 859.793 1181.58 834.119 1147.93 L 968.798 1157.28 C 987.942 1158.49 1018.56 1161.21 1036.64 1160.29 C 1022.15 1156.26 1003.38 1154.11 988.091 1151.75 C 924.851 1142 859.565 1128.85 795.895 1123.52 C 809.221 1084.12 823.059 1044.9 837.408 1005.87 C 842.014 993.132 846.631 978.207 851.393 965.901 C 896.901 971.708 947.72 974.168 993.511 977.879 L 1054.87 983.039 C 1062.5 983.629 1076.62 984.996 1084.13 984.858 L 1086.76 982.495 C 1074.64 979.719 1059.33 977.621 1046.75 975.493 C 1019.79 970.708 992.731 966.449 965.599 962.717 C 931.371 957.887 892.872 951.708 858.791 948.831 C 876.671 896.456 895.472 844.4 915.188 792.688 C 953.207 796.093 991.247 799.25 1029.31 802.16 C 1056.65 804.162 1087.89 805.672 1114.81 808.679 C 1104.25 804.944 1093.2 803.16 1082.21 801.257 C 1044.04 794.649 1005.98 787.424 967.788 780.911 C 952.898 778.371 937.844 776.979 922.912 774.754 C 930.588 747.347 941.678 720.068 952.031 693.471 C 961.584 668.929 971.266 642.146 982.084 618.311 C 1019.96 617.247 1059.19 617.01 1096.79 614.55 C 1062.95 608.687 1024.75 601.411 991.088 596.533 C 1007.29 554.416 1030.81 507.621 1051.54 467.448 C 1074.27 462.973 1105.66 459.588 1129.15 456.715 C 1106.75 454.557 1084.28 453.371 1061.78 453.162 z" fill="rgb(254,223,118)" transform="translate(0,0)"></path>
<path d="M 1084.13 984.858 L 1086.76 982.495 C 1092.64 983.163 1098.08 983.77 1103.91 984.783 C 1096.74 985.055 1091.28 985.2 1084.13 984.858 z" fill="rgb(49,47,41)" transform="translate(0,0)"></path>
<path d="M 617.649 1705.11 C 647.343 1711.45 664.339 1718.25 696.928 1722.57 C 665.078 1768 624.807 1809.4 591.305 1853.59 C 585.706 1860.98 576.154 1876.06 583.873 1883.3 C 609.841 1907.65 673.799 1917.28 707.501 1920.85 C 781.274 1928.66 857.417 1925.53 928.642 1905.44 C 948.401 1899.73 985.682 1883.79 965.788 1857.72 C 933.957 1816.01 901.59 1772.41 866.842 1733.1 C 923.718 1740.02 988.667 1752.33 1045.94 1761.54 L 1429.07 1823.22 L 1550.25 1842.07 C 1568.45 1844.71 1588.35 1847.96 1606.52 1849.64 C 1592.58 1853.57 1575.95 1856.85 1561.59 1860.43 C 1515.11 1871.55 1468.84 1883.47 1422.78 1896.19 C 1397.93 1902.38 1370.17 1910.71 1345.34 1917.64 C 1306.33 1928.41 1267.39 1939.4 1228.52 1950.63 C 1178.06 1965.58 1131.17 1981.53 1078.52 1989.82 C 969.753 2006.94 859.173 2004.48 750.537 1987.41 C 710.657 1981.15 672.457 1970.89 633.242 1962.26 C 587.057 1952.09 540.774 1942.36 494.538 1932.63 C 395.255 1912.14 295.866 1892.16 196.375 1872.7 C 173.239 1868.16 150.418 1862.96 127.186 1858.51 C 128.648 1852.84 129.617 1850.5 131.856 1845.2 C 143.086 1840.08 168.629 1833.45 181.031 1829.93 L 280.842 1802.22 C 350.228 1782.62 419.477 1762.54 488.586 1741.99 C 531.932 1729.46 574.392 1718.41 617.649 1705.11 z" fill="rgb(254,223,118)" transform="translate(0,0)"></path>
<path d="M 1549.51 72.4344 C 1564.09 71.9023 1578.68 73.0237 1593.01 75.777 C 1577.35 77.5214 1562.45 77.4222 1545.97 79.5183 C 1500.57 85.2941 1454.53 102.559 1413.82 123.342 C 1341.16 160.442 1272.01 210.08 1210.71 263.987 C 1167.73 301.784 1117.4 347.968 1081.88 392.561 C 1049.35 433.416 1023.47 484.605 1001.26 531.62 C 965.773 606.736 937.054 684.66 907.25 762.19 C 878.878 836.593 851.231 911.272 824.313 986.214 C 808.354 1030.02 790.83 1074.96 776.266 1118.97 C 755.804 1117.03 734.637 1120.79 716.652 1130.93 C 698.31 1141.41 684.923 1158.79 679.474 1179.2 C 671.914 1206.79 678.298 1228.78 691.874 1252.61 C 665.246 1257.94 639.096 1261.24 627.49 1289.05 C 623.906 1290.06 620.375 1291.26 616.91 1292.62 C 583.443 1305.66 557.058 1323.58 542.255 1356.93 C 523.203 1367.31 504.417 1379.41 488.023 1393.66 C 480.638 1400.08 474.491 1408.82 466.703 1414.44 C 457.471 1407.42 446.824 1399.03 439.674 1389.84 C 398.562 1336.97 403.385 1265.28 363.195 1211.07 C 335.658 1173.92 302.436 1151.25 256.958 1143.84 C 257.191 1129.79 256.594 1125.6 252.024 1112.45 C 273.296 1105.95 286.335 1095.61 285.083 1071.11 C 284.874 1067.01 284.46 1062.88 281.221 1060.15 C 257.904 1062.38 243.608 1064.18 219.71 1063.21 C 210.765 1062.85 184.466 1058.71 180.535 1059.94 C 172.361 1068.86 177.078 1088.71 182.699 1098.06 C 189.017 1108.56 192.889 1110.62 203.893 1113.7 C 198.441 1126.13 198.338 1136.03 199.74 1149.57 C 90.7452 1190.6 75.1768 1336.03 127.278 1428.73 C 179.621 1521.85 289.069 1565.88 383.434 1603.98 C 411.876 1615.47 444.67 1624.12 474.209 1632.86 C 491.113 1637.2 497.301 1643.65 511.169 1654.06 C 506.819 1653.11 502.502 1652.03 498.225 1650.79 C 389.992 1619.87 276.794 1580.65 186.216 1512.08 C 173.789 1502.67 161.911 1489.5 151.336 1478.1 C 72.8042 1393.47 61.4547 1244.2 153.598 1164.92 C 163.982 1155.99 178.802 1148.08 191.034 1141.37 C 190.837 1133.78 191.081 1126.15 191.25 1118.56 C 181.677 1112.23 173.519 1102.91 170.15 1091.72 C 166.764 1080.47 165.191 1064.53 170.092 1053.61 C 173.36 1046.33 181.767 1051.5 187.461 1051.95 C 220.35 1059.65 257.065 1058.87 289.268 1048.65 C 300.759 1080.19 294.901 1101.63 265.121 1118.96 C 267.632 1124.5 267.516 1128.66 267.748 1134.58 C 346.367 1158.24 382.404 1205.18 405.503 1282.45 C 413.992 1310.84 420.936 1341.22 436.175 1366.91 C 444.914 1381.64 455.345 1391.49 467.236 1403.56 C 476.715 1387.31 487.146 1378.86 504.022 1371.56 C 511.921 1347.15 534.872 1305.36 546.356 1281.45 C 561.9 1249.08 575.917 1217.26 590.773 1184.62 L 663.26 1021.45 C 690.851 960.225 719.292 899.389 748.576 838.957 C 784.121 762.406 821.238 686.594 859.902 611.57 C 898.17 537.94 941.59 450.854 996.583 388.298 C 1011.8 370.994 1038.59 347.894 1056.08 332.166 C 1079.38 311.21 1106.48 287.737 1131.23 268.421 C 1168.03 240.278 1206.03 213.744 1245.13 188.896 C 1296.58 155.559 1354.73 121.728 1412.32 100.384 C 1456.27 83.8077 1502.58 74.3717 1549.51 72.4344 z" fill="rgb(254,223,118)" transform="translate(0,0)"></path>
<path d="M 1248.92 442.162 C 1266.29 442.043 1289.43 443.587 1306.84 444.547 C 1338.97 446.329 1371.08 448.331 1403.17 450.554 C 1402.22 479.082 1398.35 516.126 1396.25 545.427 L 1381.44 747.821 C 1367.63 930.195 1355.39 1112.68 1344.71 1295.27 C 1337.95 1296.72 1329.63 1299.58 1322.96 1299.69 C 1318.68 1295.08 1322.71 1279.43 1319.91 1271.03 C 1315.88 1258.98 1311.64 1253.26 1303.33 1244.16 C 1271.98 1218.45 1226.35 1232.77 1216.6 1272.94 C 1213.2 1286.95 1213.54 1311.45 1212.69 1326.49 L 1190.88 1330.51 C 1195.74 1284.26 1196.68 1234.59 1200.16 1188.01 C 1211.82 1029.06 1222.11 870.026 1231.02 710.906 L 1241.71 548.457 C 1243.49 519.14 1244.78 470.28 1248.92 442.162 z" fill="rgb(254,223,118)" transform="translate(0,0)"></path>
<path d="M 1287.06 967.692 C 1290.67 968.26 1292.99 968.097 1295.46 970.658 C 1295.57 971.334 1296.46 976.604 1296.81 976.815 C 1316.01 988.429 1336.15 1008.9 1330.11 1033.46 C 1325.53 1052.04 1308.82 1057.34 1293.67 1066.24 C 1290.32 1083.28 1287.47 1108.62 1290.25 1125.52 C 1293.05 1142.52 1304.86 1159.61 1309.88 1176.29 C 1321.08 1177.35 1326.88 1178.55 1325.94 1191.91 C 1325.54 1197.71 1325.11 1203.67 1324.79 1209.48 C 1309.51 1208.47 1289.99 1206.83 1275.01 1204.88 C 1268.36 1204.74 1229 1199.53 1223.9 1197.73 C 1220.45 1189.68 1222.06 1178.14 1226.61 1170.69 C 1230.17 1168.62 1229.85 1169.44 1234.91 1169.86 C 1241.53 1157.45 1257.73 1138.23 1262.55 1127.06 C 1266.14 1118.74 1268.78 1072.95 1268.1 1062.97 C 1258.28 1058.53 1260.65 1058.35 1253.54 1052.37 C 1228.96 1031.73 1235.86 994.924 1263.96 981.816 C 1268.69 979.61 1279.81 978.721 1282.72 975.91 C 1284.3 971.748 1284.39 971.123 1287.06 967.692 z" fill="rgb(49,49,60)" transform="translate(0,0)"></path>
<path d="M 1278.07 1064.48 C 1280.68 1064.6 1280.57 1064.53 1282.98 1065.48 C 1285.53 1073.39 1277.31 1111.48 1280.22 1128.66 C 1284.02 1151.07 1286.48 1153.08 1295.17 1174.21 L 1274.24 1172.27 L 1248.16 1169.62 C 1253.5 1161.04 1261.7 1152.43 1266.33 1143.75 C 1277.71 1122.43 1277.02 1088.57 1278.07 1064.48 z" fill="rgb(254,232,125)" transform="translate(0,0)"></path>
<path d="M 1278.87 985.932 L 1280.9 986.238 C 1281.04 986.68 1278.59 1038.47 1278.55 1044.12 C 1272.31 1043.1 1264.97 1042.29 1259.22 1039.91 C 1256.2 1036.88 1252.96 1032.96 1251.21 1029.05 C 1248.37 1022.69 1248.34 1015.42 1251.13 1009.04 C 1256.29 996.896 1267.2 990.415 1278.87 985.932 z" fill="rgb(254,232,125)" transform="translate(0,0)"></path>
<path d="M 1294.55 988.314 C 1314.65 999.295 1330.97 1024.85 1309.66 1043.37 C 1303.72 1046.22 1297.77 1043.42 1289.08 1045.37 C 1291.41 1022.54 1293.57 1012.9 1294.55 988.314 z" fill="rgb(254,232,125)" transform="translate(0,0)"></path>
<path d="M 1235.49 1179.72 C 1260.97 1181.17 1287.54 1184.72 1313.84 1186.29 L 1312.78 1197.2 C 1302.28 1196.77 1243.72 1191.12 1235.26 1188.68 C 1233.92 1186.18 1235 1182.78 1235.49 1179.72 z" fill="rgb(254,232,125)" transform="translate(0,0)"></path>
<path d="M 1312.11 772.5 C 1321.03 772.351 1357.12 770.728 1362.85 774.084 C 1363.95 785.87 1351.92 941.901 1350.27 945.765 C 1349.63 947.252 1349.33 947.619 1347.72 948.066 C 1339.9 950.227 1313.49 946.691 1306.83 942.224 C 1304.17 940.437 1302.48 937.98 1302.23 934.699 C 1302.06 932.423 1302.68 930.861 1304.18 929.215 C 1312.34 928.021 1329.25 931.928 1337.94 933.597 C 1338.44 933.06 1338.94 932.523 1339.43 931.985 C 1342.63 892.326 1348.21 824.569 1350.48 787.255 C 1332.94 787.04 1257.16 790.853 1247.13 786.673 C 1230.35 768.339 1304.78 772.602 1312.11 772.5 z" fill="rgb(49,49,60)" transform="translate(0,0)"></path>
<path d="M 1300.57 473.281 C 1323.58 472.478 1365.41 483.034 1382.02 498.941 C 1380.89 503.235 1379.5 507.614 1378.22 511.879 C 1356.5 498.707 1331.68 486.608 1305.47 487.173 C 1298.46 487.324 1288.66 489.09 1283.84 494.703 C 1281.72 497.135 1280.7 500.337 1281.03 503.546 C 1282.41 518.563 1302.46 524.377 1315.24 523.182 C 1336.39 518.215 1366.24 508.536 1382.96 528.47 C 1384.47 530.277 1383.86 531.596 1383.48 533.597 L 1381.84 534.697 C 1372.77 535.546 1360.41 532.025 1350.85 532.276 C 1328.69 532.689 1301.81 544.347 1282.01 527.961 C 1251.92 503.073 1267.06 478.374 1300.57 473.281 z" fill="rgb(49,49,60)" transform="translate(0,0)"></path>
<path d="M 1251.45 659.077 C 1289.93 661.525 1328.62 661.679 1367.13 663.263 C 1371.47 663.441 1372.31 663.793 1374.72 666.58 C 1375.53 670.447 1375.01 671.275 1373.92 675.009 C 1367.69 675.005 1361 674.787 1354.74 674.487 C 1321.72 672.904 1288.49 673.867 1255.56 671.855 C 1253.48 671.727 1252.02 669.52 1250.99 667.983 C 1250.14 663.704 1250.35 663.427 1251.45 659.077 z" fill="rgb(49,49,60)" transform="translate(0,0)"></path>
<path d="M 1272.05 817.64 C 1273.4 821.831 1269.52 843.176 1268.71 848.747 C 1265.26 852.77 1259.64 856.177 1260.83 861.622 L 1262.19 861.973 C 1264.99 855.821 1265.62 854.157 1270.73 849.506 C 1271.11 858.805 1270.88 869.011 1271.16 878.531 C 1274.3 868.185 1275.64 859.806 1277.26 849.135 C 1285.82 851.865 1288.23 852.656 1295.58 857.403 C 1290.56 863.998 1288.86 866.148 1281.28 869.334 C 1275.53 871.92 1269.2 899.856 1266.89 906.82 C 1263.1 895.784 1260.18 880.651 1257.32 868.944 C 1250.86 867.438 1241.9 864.875 1246.01 856.31 C 1249.1 853.474 1252.07 853.718 1256.4 853.24 C 1263.49 843.562 1267.13 829.297 1272.05 817.64 z" fill="rgb(49,49,60)" transform="translate(0,0)"></path>
<path d="M 1255.21 629.132 C 1288.93 627.616 1325.68 629.831 1359.63 630.203 C 1364.73 630.259 1368.29 630.65 1371.09 634.983 C 1371.13 639.372 1371.69 637.459 1369.75 641.044 C 1332.92 640.116 1296.12 639.158 1259.27 638.723 C 1256.75 638.693 1256.29 637.818 1254.62 636.311 C 1253.61 633.142 1254.2 632.296 1255.21 629.132 z" fill="rgb(49,49,60)" transform="translate(0,0)"></path>
<path d="M 1362.6 540.397 C 1366.48 541.014 1366.71 540.781 1369.92 543.208 C 1371.31 545.236 1372.01 548.121 1371.69 550.487 C 1370 562.904 1370.88 614.993 1363.79 622.299 C 1358.73 622.045 1358 622.204 1354.57 619.283 C 1352.53 611.98 1359.09 547.543 1362.6 540.397 z" fill="rgb(49,49,60)" transform="translate(0,0)"></path>
<path d="M 1335.37 543.797 C 1340.61 544.012 1342.46 543.515 1345.48 547.955 C 1346.26 557.237 1343.71 618.157 1339.64 623.834 C 1335.21 623.777 1333.2 624.092 1330.17 621.113 C 1326.9 609.29 1333.08 558.531 1335.37 543.797 z" fill="rgb(49,49,60)" transform="translate(0,0)"></path>
<path d="M 1310.24 545.014 C 1314.7 544.849 1317 544.418 1321.14 545.78 C 1323.5 550.977 1317.99 616.356 1314.71 623.791 C 1311.14 625.045 1309.07 624.741 1305.97 622.851 C 1303.05 616.342 1309.18 556.397 1310.24 545.014 z" fill="rgb(49,49,60)" transform="translate(0,0)"></path>
<path d="M 1251.12 694.218 C 1265.66 693.195 1282.49 694.862 1297.12 695.845 C 1302.9 696.233 1308.62 697.596 1310.93 703.246 C 1310.67 707.11 1310.22 707.141 1307.84 710.136 C 1299.03 710.559 1258.05 709.589 1251.24 707.861 C 1246.22 703.094 1247.58 699.462 1251.12 694.218 z" fill="rgb(49,49,60)" transform="translate(0,0)"></path>
<path d="M 1249.6 732.18 C 1260.93 731.141 1273.46 731.761 1284.91 731.937 C 1292.88 732.059 1306.94 730.852 1312.44 736.405 C 1313.85 740.469 1313.39 741.526 1312.82 745.967 L 1310.86 745.981 C 1302.33 746.026 1253.44 746.493 1249.46 742.554 C 1248.01 738.501 1248.81 736.616 1249.6 732.18 z" fill="rgb(49,49,60)" transform="translate(0,0)"></path>
<path d="M 1331.39 733.344 C 1344.52 733.127 1355.97 733.232 1368.96 735.262 C 1369.08 739.11 1369.21 740.835 1368.66 744.598 C 1366.19 747.452 1367.77 746.388 1363.25 747.031 C 1353.5 746.932 1332.32 747.999 1325.19 743.02 C 1322.6 737.227 1326.61 735.401 1331.39 733.344 z" fill="rgb(49,49,60)" transform="translate(0,0)"></path>
<path d="M 1332.31 700.01 C 1341.41 700.244 1364.85 699.636 1371.34 704.348 C 1372.88 707.952 1372.51 706.026 1371.73 710.418 L 1369.69 711.669 C 1360.76 711.853 1335.22 714.319 1329.97 707.482 C 1329.71 703.268 1329.95 704.37 1332.31 700.01 z" fill="rgb(49,49,60)" transform="translate(0,0)"></path>
<path d="M 1255.65 930.449 C 1262.64 930.017 1269 929.83 1272.1 936.919 L 1271.01 939.533 C 1265.31 944.472 1261.21 943.135 1253.4 942.778 C 1247.97 942.534 1234.86 943.398 1237.16 934.986 C 1242.86 929.615 1247.51 930.685 1255.65 930.449 z" fill="rgb(49,49,60)" transform="translate(0,0)"></path>
<path d="M 1677 1316.55 L 1677.32 1316.79 C 1679.04 1320.17 1672.95 1420.57 1672.19 1434.81 L 1659.41 1686.02 L 1655.03 1775.74 C 1654.11 1797.58 1653.74 1820.74 1652.09 1842.42 C 1616.94 1838.22 1574.13 1829.58 1538.15 1823.95 L 1425.22 1805.91 C 1400.48 1801.98 1373.73 1798.2 1349.23 1793.49 C 1352.34 1758.48 1352.76 1723.23 1355.58 1688.51 C 1362.09 1608.12 1366.88 1526.96 1374.04 1446.69 C 1390.13 1435.31 1410.24 1423.98 1427.46 1413.79 C 1460.01 1395.37 1522.54 1359.35 1556.7 1348.99 C 1550.1 1396 1549.52 1466.38 1548.3 1514.84 C 1546.76 1597.38 1544.66 1679.9 1542 1762.41 C 1525.54 1772.21 1510.86 1782.07 1493.8 1791.41 C 1515.69 1792.58 1557.04 1788.98 1581.25 1788.09 C 1582.92 1691.81 1588.59 1596.12 1591.5 1499.91 C 1593.17 1444.84 1593.66 1391.25 1585.16 1336.66 C 1616.13 1325.9 1644.01 1318.12 1677 1316.55 z" fill="rgb(254,223,118)" transform="translate(0,0)"></path>
<path d="M 229.407 616.927 L 229.964 617.101 L 230.387 618.276 C 218.212 637.184 210.472 654.457 221.152 677.266 C 230.497 697.221 248.394 713.34 261.853 730.528 C 294.072 771.674 332.591 817 350.241 866.827 C 368.886 918.566 353.663 976.444 311.976 1012.31 C 302.018 1020.86 283.939 1029.64 279.045 1040.62 C 268.052 1047.99 246.063 1048.9 233.261 1048.99 C 206.321 1049.32 192.539 1044.95 172.068 1027.73 C 152.151 1010.98 131.133 994.046 119.263 969.899 C 109.72 950.486 108.162 922.188 112.796 901.195 C 124.663 848.853 197.829 825.076 208.49 773.348 C 215.741 738.161 173.553 697.499 191.396 656.672 C 200.201 636.527 209.637 626.352 229.407 616.927 z" fill="rgb(254,223,118)" transform="translate(0,0)"></path>
<path d="M 231.59 761.861 C 237.066 771.798 238.248 774.288 245.568 782.933 L 243.498 786.045 C 242.675 789.403 243.011 794.632 242.937 798.25 C 242.72 808.928 242.436 822.088 237.677 831.981 C 217.597 873.719 164.135 888.793 161.521 940.35 C 160.327 963.897 171.062 983.003 186.398 1000.47 C 190.591 1005.25 195.49 1008.78 199.903 1013.62 C 198.46 1013.27 198.127 1013.33 196.955 1012.59 C 167.047 993.536 149.427 966.432 155.599 930.337 C 164.373 879.033 220.741 865.534 234.484 818.272 C 239.871 799.747 236.366 780.068 231.59 761.861 z" fill="rgb(49,49,60)" transform="translate(0,0)"></path>
<path d="M 297.018 931.762 C 299.379 935.2 301.591 941.175 302.426 945.371 C 310.179 984.32 280.113 1016.96 244.418 1025.86 L 242.409 1026.09 L 241.567 1025.39 C 283.229 1006.21 303.933 978.684 297.018 931.762 z" fill="url(#Gradient3)" transform="translate(0,0)"></path>
<path d="M 245.568 782.933 C 268.704 812.032 273.461 849.09 253.664 881.333 C 258.575 851.45 265.216 811.8 243.498 786.045 L 245.568 782.933 z" fill="url(#Gradient2)" transform="translate(0,0)"></path>
<path d="M 1327.91 1478.3 C 1329.2 1481.72 1309.74 1755.62 1307.53 1786.79 C 1268.56 1780.09 1229.89 1774.69 1190.76 1767.66 C 1182.8 1766.37 1174.86 1764.98 1166.94 1763.49 C 1169.1 1730.47 1171.55 1697.48 1174.27 1664.51 C 1176.53 1637.68 1179.85 1607.12 1181.11 1580.52 C 1210.49 1559.41 1241 1539.3 1270.43 1518.13 C 1288.96 1504.81 1308.41 1489.85 1327.91 1478.3 z" fill="rgb(254,223,118)" transform="translate(0,0)"></path>
<path d="M 1196.71 1581.07 C 1209.88 1580.73 1295.75 1583.05 1303.85 1586.57 C 1309.52 1596.18 1289.13 1607.67 1282.58 1612.21 C 1264.8 1624.55 1245.62 1635.67 1228.37 1648.69 C 1241.79 1650.83 1299.8 1656.01 1307.33 1662.27 C 1308.67 1665.75 1308.68 1664.11 1307.76 1667.34 C 1282.34 1667.55 1257.73 1664.22 1232.59 1660.83 C 1225.03 1659.82 1208.19 1660.35 1203.92 1654.06 C 1206.24 1646.53 1268.83 1607.86 1280.7 1597.03 C 1266.22 1595.94 1206.77 1592.26 1196.39 1587.27 C 1194.97 1584.8 1195.71 1584.89 1196.71 1581.07 z" fill="rgb(49,49,60)" transform="translate(0,0)"></path>
<path d="M 1232.32 1688.21 C 1261.13 1687.38 1274.7 1685.51 1263.05 1719.79 C 1261.91 1720.93 1261.92 1720.78 1260.5 1721.62 C 1255.71 1718.74 1260 1709.93 1257.15 1703.34 C 1251.71 1690.79 1235.31 1700.57 1232.32 1688.21 z" fill="rgb(49,49,60)" transform="translate(0,0)"></path>
<path d="M 1226.97 1701.28 C 1229.63 1701.14 1232.3 1701.09 1234.97 1701.14 C 1242.45 1701.27 1253.16 1703.36 1252.64 1713.02 C 1249.01 1721.46 1243.1 1719.97 1235.87 1718.68 C 1232.45 1718.4 1232.2 1718.18 1229.06 1717.07 L 1228.85 1716.5 C 1230.97 1714.07 1239.04 1713.67 1244.02 1711.59 C 1241.92 1706.14 1227.91 1710.34 1226.97 1701.28 z" fill="url(#Gradient1)" transform="translate(0,0)"></path>
<path d="M 917.95 1300.5 C 944.541 1312.14 970.954 1322.06 985.661 1349.11 C 958.679 1357.16 934.018 1364.7 906.196 1369.76 C 819.858 1385.44 723.344 1384.72 637.211 1369.13 C 617.669 1365.06 604.185 1362.5 586.159 1353.57 C 593.881 1340.82 606.059 1329.4 618.44 1321.26 C 624.049 1317.57 629.522 1315.02 634.924 1310.86 C 640.456 1314.1 646.752 1316.82 652.057 1320.13 C 693.423 1345.99 901.119 1349.24 917.95 1300.5 z" fill="rgb(254,223,118)" transform="translate(0,0)"></path>
<path d="M 757.705 1131.34 C 757.989 1131.29 758.274 1131.25 758.559 1131.2 C 776.661 1128.75 795.002 1133.48 809.66 1144.38 C 865.065 1185.09 843.365 1262.25 774.237 1271.65 C 726.236 1277.6 681.265 1239.26 691.034 1189.7 C 698.125 1153.74 723.046 1136.4 757.705 1131.34 z" fill="rgb(254,232,125)" transform="translate(0,0)"></path>
<path d="M 757.701 1145.28 C 807.906 1139.45 846.797 1191.74 815.46 1235.81 C 804.026 1251.88 790.761 1257.55 772.235 1260.86 C 694.093 1264.03 671.028 1159.75 757.701 1145.28 z" fill="rgb(49,49,60)" transform="translate(0,0)"></path>
<path d="M 779.521 1159.92 C 792.419 1164.63 802.809 1171.94 809.283 1184.46 C 814.489 1194.59 815.185 1206.45 811.201 1217.12 C 805.745 1231.98 795.328 1238.41 781.891 1244.4 C 768.422 1247.52 762.913 1247.94 749.416 1244.29 C 752.138 1234.4 758.145 1218.89 761.767 1208.84 C 767.486 1192.96 773.322 1175.49 779.521 1159.92 z" fill="rgb(254,223,118)" transform="translate(0,0)"></path>
<path d="M 749.971 1158.91 L 751.147 1159.89 C 751.093 1162.81 730.879 1223.32 728.26 1229.18 C 726.02 1229.15 725.609 1227.85 723.423 1225.7 C 705.005 1196.13 719.819 1170.59 749.971 1158.91 z" fill="rgb(254,232,125)" transform="translate(0,0)"></path>
<path d="M 1134.62 1611.87 L 1136.3 1612.14 C 1137.17 1614.55 1125.88 1743.89 1124.93 1757.69 C 1059.08 1744.42 992.119 1735.19 925.748 1724.68 C 912.915 1722.64 897.524 1720.54 885.208 1717.08 C 979.083 1699.63 1053.72 1660.47 1134.62 1611.87 z" fill="rgb(254,223,118)" transform="translate(0,0)"></path>
<path d="M 1422.71 365.98 L 1439.49 365.932 L 1382.23 1169.19 C 1379.52 1208.47 1377.26 1247.67 1375.17 1286.97 C 1374.7 1287.52 1374.24 1288.06 1373.78 1288.61 C 1368.86 1289.72 1363.23 1290.69 1358.22 1291.66 C 1361.46 1231.73 1365.38 1171.84 1369.99 1112 C 1375.35 1025.24 1381.27 938.507 1387.75 851.82 L 1422.71 365.98 z" fill="rgb(254,232,125)" transform="translate(0,0)"></path>
<path d="M 1223.29 362.892 L 1238.6 363.229 C 1238.56 373.278 1237.14 387.744 1236.47 398.097 L 1232.25 463.567 L 1217.41 691.825 L 1202.71 928.43 C 1195.76 1063.25 1187.36 1198 1177.52 1332.64 C 1172.85 1333.92 1167.42 1334.79 1162.62 1335.7 C 1163.32 1310.53 1167.23 1279.2 1168.74 1253.1 L 1183.68 1004.9 L 1223.29 362.892 z" fill="rgb(254,232,125)" transform="translate(0,0)"></path>
<path d="M 201.618 1160.94 C 205.11 1161.69 210.335 1177.32 211.966 1181.24 C 171.771 1191.62 147.88 1225.16 137.034 1263.4 C 122.904 1312.11 129.004 1364.45 153.954 1408.61 C 169.479 1436.15 196.27 1465.92 222.463 1483.74 C 289.004 1529 368.037 1567.09 445.49 1588.67 C 451.844 1597.69 457.997 1606.29 463.813 1615.68 L 463.404 1616.82 L 459.405 1615.88 C 345.937 1579.27 183.605 1523.37 130.065 1407.08 C 106.08 1356.05 103.449 1297.57 122.755 1244.59 C 137.607 1205.03 163.385 1178.21 201.618 1160.94 z" fill="rgb(254,223,118)" transform="translate(0,0)"></path>
<path d="M 613.692 1848.6 L 614.279 1849.2 C 618.002 1851.95 631.044 1857.63 635.992 1859.29 C 717.077 1886.53 823.592 1888.19 906.724 1868.82 C 919.222 1865.9 934.58 1858.91 946.054 1853.51 C 950.938 1861.3 960.929 1874.19 948.714 1881.2 C 940.071 1886.17 926.943 1890.41 917.133 1893.18 C 838.532 1915.42 752.036 1913.76 671.861 1901.45 C 654.289 1898.68 610.641 1890.09 598.614 1876.05 C 597.11 1874.29 597.134 1871.08 597.555 1868.74 C 598.303 1867.97 599.961 1866.18 601.776 1866.95 C 608.49 1869.79 618.208 1875.97 625.209 1878.03 C 652.127 1885.97 684.298 1892.78 712.342 1893.57 C 714.36 1893.63 715.662 1891.42 716.481 1890.13 C 712.55 1883.65 684.771 1882.5 676.304 1881.04 C 651.557 1876.74 627.4 1869.56 604.327 1859.63 C 607.366 1855.16 610.034 1852.52 613.692 1848.6 z" fill="rgb(254,232,125)" transform="translate(0,0)"></path>
<path d="M 231.165 1190.41 C 248.746 1187.92 269.379 1192.72 285.058 1200.93 C 362.457 1241.45 347.954 1321.7 383.57 1388.68 C 399.211 1418.09 416.454 1434.72 442.914 1452.92 L 438.658 1462.6 C 430.706 1456.29 422.726 1450.07 414.858 1443.52 C 381.113 1415.45 363.579 1374.05 352.391 1332.69 C 347.151 1313.32 343.088 1293.99 336.594 1275.04 C 309.496 1195.95 202.899 1163.44 164.579 1252.67 C 146.533 1295.03 147.944 1337.92 165 1381.36 C 167.969 1388.72 171.467 1395.86 175.465 1402.71 C 187.304 1422.39 202.393 1439.92 220.09 1454.56 C 271.068 1497.52 371.733 1543.88 436.091 1560.7 L 438.764 1573.6 C 366.721 1553.64 273.833 1508.42 214.644 1462.56 C 176.404 1431.52 147.261 1384.74 142.869 1335.36 C 137.348 1273.29 158.742 1197.09 231.165 1190.41 z" fill="rgb(254,232,125)" transform="translate(0,0)"></path>
<path d="M 255.682 1155.1 C 296.678 1163.35 328.245 1183.53 352.892 1217.4 C 390.03 1268.43 388.541 1334.39 422.338 1387.03 C 432.455 1402.79 444.394 1412.59 458.346 1424.65 L 450.154 1440.52 L 448.513 1441.03 C 443.112 1439.27 430.723 1429.23 426.022 1424.98 C 364.599 1369.34 380.433 1287.27 333.898 1227.09 C 312.032 1198.82 285.699 1182 250.123 1177.47 C 252.46 1169.4 253.995 1163.31 255.682 1155.1 z" fill="rgb(254,232,125)" transform="translate(0,0)"></path>
<path d="M 623.053 1303.9 C 627.429 1304.02 625.823 1303.22 628.737 1305.22 C 627.401 1308.03 612.274 1315.22 607.694 1319.18 C 594.847 1330.3 584.365 1339.98 577.49 1355.7 C 610.531 1375.82 680.518 1382.69 719.668 1385.11 C 808.679 1390.6 902.746 1384.02 987.236 1353.79 C 988.702 1356.71 990.238 1360.68 991.542 1363.77 L 979.506 1369.03 C 953.037 1379.43 907.937 1389.1 879.263 1392.88 C 789.616 1404.71 686.505 1404.6 598.955 1379.3 C 584.943 1375.25 566.111 1368.64 554.685 1360.06 C 564.267 1334.87 599.127 1313.55 623.053 1303.9 z" fill="rgb(254,232,125)" transform="translate(0,0)"></path>
<path d="M 768.601 1730.13 C 775.524 1730.07 781.612 1730.53 788.508 1731.01 C 792.116 1742.72 795.708 1766.39 797.891 1779.18 C 802.987 1809.05 807.675 1838.98 811.952 1868.98 C 802.017 1869.37 792.038 1869.27 782.093 1869.26 C 768.017 1869.18 754.006 1868.31 739.949 1867.58 C 750.052 1821.88 759.604 1776.06 768.601 1730.13 z" fill="rgb(254,223,118)" transform="translate(0,0)"></path>
<path d="M 826.809 1263.15 C 853.73 1268.06 875.279 1270.78 897.748 1287.31 C 882.575 1295.14 872.356 1296.89 855.427 1299.69 C 804.453 1307.26 736.755 1304.98 685.371 1298.13 C 678.784 1297.25 651.634 1292.26 647.532 1285.92 C 646.741 1284.7 647.295 1284.19 647.73 1282.51 C 656.536 1273.3 691.457 1266.39 704.693 1263.37 C 745.33 1295.92 786.047 1293.04 826.809 1263.15 z" fill="rgb(254,223,118)" transform="translate(0,0)"></path>
<path d="M 1585.27 758.546 C 1598.63 762.465 1608.33 779.736 1613.31 791.897 C 1606.02 791.99 1598.73 792.13 1591.44 792.315 C 1588.42 829.147 1579.27 871.929 1574.22 909.036 C 1571.52 928.814 1567.42 969.134 1561.92 986.3 C 1552.07 982.328 1544.58 978.256 1535.2 973.338 C 1536.55 952.514 1546.75 907.307 1551.11 885.089 C 1555.26 863.855 1559.55 842.648 1563.97 821.469 C 1568.16 801.359 1571.83 774.165 1585.27 758.546 z" fill="rgb(254,232,125)" transform="translate(0,0)"></path>
<path d="M 819.337 1728.5 L 820.092 1728.42 C 823.65 1730.85 874.978 1847.13 881.677 1861.49 L 860.234 1864.82 C 848.049 1866.32 836.154 1867.67 823.881 1868.2 C 818.333 1821.96 810.545 1776.02 800.544 1730.54 L 819.337 1728.5 z" fill="rgb(254,223,118)" transform="translate(0,0)"></path>
<path d="M 738.96 1727.95 C 744.568 1727.99 751.362 1728.67 757.067 1729.11 C 754.685 1745.91 750.236 1765.84 746.891 1782.76 C 741.504 1810.81 735.799 1838.8 729.777 1866.72 C 717.48 1865.34 705.218 1863.67 693.001 1861.71 C 685.672 1860.66 677.547 1858.85 670.207 1857.36 C 686.438 1830.08 700.598 1801.35 716.502 1773.85 C 725.163 1758.86 733.022 1744.27 738.96 1727.95 z" fill="rgb(254,223,118)" transform="translate(0,0)"></path>
<path d="M 1357.69 1457.03 C 1359.2 1459.12 1346.7 1632.39 1345.08 1652.3 C 1341.57 1695.38 1340.01 1749.31 1335.83 1791.8 L 1323.22 1790.21 C 1322.15 1789.93 1321.52 1789.48 1320.51 1788.94 C 1320.21 1779.02 1322.24 1760.9 1323.05 1750.14 L 1328.83 1672.42 C 1333.55 1605.66 1336.71 1533.11 1343.08 1466.94 L 1357.69 1457.03 z" fill="rgb(254,232,125)" transform="translate(0,0)"></path>
<path d="M 1266.11 1242.28 C 1267.22 1242.23 1267.42 1242.2 1268.32 1242.23 C 1279.37 1242.65 1289.76 1247.61 1297.05 1255.93 C 1310.1 1270.85 1309.24 1286.42 1308.06 1304.28 L 1278.25 1311.05 C 1279.95 1298.44 1275.62 1279.52 1259.33 1290.76 C 1252.52 1298.82 1252.04 1306.05 1254.12 1315.95 L 1224.13 1323.55 C 1224.4 1288.8 1223.11 1250.65 1266.11 1242.28 z" fill="rgb(254,223,118)" transform="translate(0,0)"></path>
<path d="M 1827.44 494.327 C 1855.93 490.951 1894.24 505.454 1919 519.125 C 1906.96 521.881 1895.32 524.842 1884.14 530.238 C 1875.33 534.492 1867.53 539.255 1858.4 543.032 L 1857.04 543.589 C 1832.88 548.454 1822.06 531.879 1799.77 523.992 C 1785.41 518.91 1780.76 518.72 1765.36 517.784 C 1781.43 507.357 1808.42 497.021 1827.44 494.327 z" fill="rgb(254,232,125)" transform="translate(0,0)"></path>
<path d="M 1836.29 501.365 C 1857 499.603 1876.9 509.55 1895.09 518.614 C 1872.53 523.905 1870.92 529.328 1852.41 536.055 C 1837.79 539.638 1825.83 525.659 1812.17 519.752 C 1804.72 516.529 1801.97 515.628 1793.89 513.295 C 1810.22 506.855 1819.08 503.542 1836.29 501.365 z" fill="rgb(49,49,60)" transform="translate(0,0)"></path>
<path d="M 842.021 1725.17 C 847.12 1726.84 925.046 1828.28 935.965 1842.4 C 929.162 1846.55 926.706 1847.65 919.25 1850.49 C 910.66 1853.8 903.03 1856.19 894.268 1858.92 C 877.576 1817.85 852.401 1770.44 834.003 1728.59 C 835.957 1726.41 838.693 1726.21 842.021 1725.17 z" fill="rgb(254,223,118)" transform="translate(0,0)"></path>
<path d="M 713.419 1724.79 L 727.411 1726.3 C 708.84 1767.38 679.067 1813.88 657.19 1855.1 C 646.347 1852.22 631.72 1848.24 622.322 1841.86 L 622.442 1840.02 C 653.217 1801.89 685.245 1765.29 713.419 1724.79 z" fill="rgb(254,223,118)" transform="translate(0,0)"></path>
<path d="M 1791.56 1089.3 C 1793.95 1086.25 1793.22 1085.47 1796.61 1082.64 C 1798.6 1084.17 1797.76 1083.29 1799.18 1085.22 L 1800.75 1085.16 C 1802.39 1089.24 1802.46 1087.39 1801.6 1090.91 C 1798.65 1093.8 1798.22 1093.2 1798.26 1097.98 C 1798.33 1105.07 1799.23 1112.02 1798.83 1119.14 C 1803.22 1163.25 1804.55 1166.69 1819.16 1207.75 C 1811.19 1213.86 1809.17 1216.36 1799.05 1216.09 L 1795.77 1212.79 C 1792.51 1214.66 1789.98 1215.63 1786.48 1217.07 C 1780.84 1214.58 1771.42 1211.3 1768.34 1206.27 C 1769.55 1198.6 1774.5 1188.74 1777.09 1179.88 C 1784.95 1153.03 1791.47 1123.1 1793.73 1095.18 C 1793.83 1093.91 1792.16 1090.48 1791.56 1089.3 z" fill="rgb(254,232,125)" transform="translate(0,0)"></path>
<path d="M 1795.09 1135.04 C 1794.85 1131.17 1795.32 1123.49 1796.66 1119.98 L 1798.83 1119.14 C 1803.22 1163.25 1804.55 1166.69 1819.16 1207.75 C 1811.19 1213.86 1809.17 1216.36 1799.05 1216.09 C 1798.99 1214.07 1799.64 1212.51 1800.19 1210.49 C 1797.04 1195.11 1796.29 1174.1 1795.28 1157.89 L 1797.65 1154.11 C 1797.17 1149.31 1797.15 1144.58 1797.04 1139.76 L 1795.09 1135.04 z" fill="rgb(254,232,125)" transform="translate(0,0)"></path>
<path d="M 1795.28 1157.89 L 1797.65 1154.11 C 1800.25 1167.99 1820.39 1210.59 1800.19 1210.49 C 1797.04 1195.11 1796.29 1174.1 1795.28 1157.89 z" fill="rgb(49,49,60)" transform="translate(0,0)"></path>
<path d="M 1795.09 1135.04 C 1794.85 1131.17 1795.32 1123.49 1796.66 1119.98 C 1797.12 1126.95 1797.1 1132.77 1797.04 1139.76 L 1795.09 1135.04 z" fill="rgb(115,109,66)" transform="translate(0,0)"></path>
<path d="M 1795.09 1135.04 L 1797.04 1139.76 C 1797.15 1144.58 1797.17 1149.31 1797.65 1154.11 L 1795.28 1157.89 C 1796.29 1174.1 1797.04 1195.11 1800.19 1210.49 C 1799.64 1212.51 1798.99 1214.07 1799.05 1216.09 L 1795.77 1212.79 L 1794.39 1210.77 C 1785.38 1212.73 1782.58 1210.07 1773.87 1206.16 C 1782.82 1191.59 1787.22 1165.84 1791.17 1148.44 L 1790.83 1147.07 C 1792.96 1142.71 1793.37 1141.49 1794.57 1136.78 L 1795.09 1135.04 z" fill="rgb(49,49,60)" transform="translate(0,0)"></path>
<path d="M 1795.09 1135.04 L 1797.04 1139.76 C 1797.15 1144.58 1797.17 1149.31 1797.65 1154.11 L 1795.28 1157.89 C 1796.29 1174.1 1797.04 1195.11 1800.19 1210.49 C 1799.64 1212.51 1798.99 1214.07 1799.05 1216.09 L 1795.77 1212.79 L 1794.39 1210.77 C 1795.83 1205.07 1793.07 1153.67 1791.17 1148.44 L 1790.83 1147.07 C 1792.96 1142.71 1793.37 1141.49 1794.57 1136.78 L 1795.09 1135.04 z" fill="rgb(254,223,118)" transform="translate(0,0)"></path>
<path d="M 1795.09 1135.04 L 1797.04 1139.76 C 1797.15 1144.58 1797.17 1149.31 1797.65 1154.11 L 1795.28 1157.89 C 1794.78 1150.72 1794.68 1143.97 1794.57 1136.78 L 1795.09 1135.04 z" fill="rgb(49,47,41)" transform="translate(0,0)"></path>
<path d="M 638.557 1291.96 C 649.75 1294.37 661.878 1301.8 674.44 1303.68 C 740.896 1313.59 812.998 1315.47 879.01 1301.68 C 884.512 1300.54 899.976 1293.76 903.016 1294.38 L 904.001 1296.29 C 903.053 1298.61 902.796 1298.82 901.443 1300.98 C 900.79 1301.41 900.128 1301.83 899.458 1302.24 C 859.282 1326.59 724.32 1326.45 679.8 1312.76 C 666.559 1308.69 646.121 1304.78 638.557 1291.96 z" fill="rgb(254,232,125)" transform="translate(0,0)"></path>
<path d="M 1164.65 1591.84 L 1165.45 1592.67 C 1166.53 1598.19 1164.17 1620.38 1163.34 1627.5 C 1158.27 1671.25 1158.85 1718.12 1152.56 1761.49 C 1148.52 1761.09 1144.24 1760.25 1140.22 1759.55 L 1138.91 1758.89 C 1136.69 1753.64 1151.04 1621.05 1150.98 1602.01 L 1164.65 1591.84 z" fill="rgb(254,232,125)" transform="translate(0,0)"></path>
<path d="M 193.098 1073 C 195.666 1072.96 214.687 1073.92 215.882 1074.34 C 223.067 1076.89 271.792 1072.72 274.259 1074.07 C 278.512 1082.11 270.648 1091.35 264.823 1096.52 C 260.053 1099.64 254.842 1102.02 249.364 1103.58 C 232.69 1108.45 197.552 1111.24 192.214 1088.16 C 190.78 1081.96 189.679 1078.77 193.098 1073 z" fill="rgb(254,223,118)" transform="translate(0,0)"></path>
<path d="M 1803.89 1427.9 C 1814.53 1439.71 1801.93 1449 1802.27 1456.39 C 1803.43 1481.66 1804.35 1475.92 1793.48 1498.1 C 1794.99 1513.31 1800.01 1524.86 1803.28 1539.48 C 1803.46 1540.28 1803.38 1543.73 1801.61 1545.11 C 1784.53 1558.48 1727.76 1539.15 1751.68 1581.42 C 1753.14 1583.99 1761.18 1587 1763.39 1591.72 C 1760.37 1597.64 1748.19 1595.24 1745.87 1592.57 C 1724.42 1567.92 1737.12 1535.53 1772.02 1539.14 C 1779.19 1539.89 1789.22 1540.04 1794.01 1536.81 C 1796.1 1528.67 1783.22 1489.1 1784.89 1474.76 C 1786.78 1458.55 1805.9 1443.54 1804.62 1433.58 L 1802.63 1430.97 L 1803.89 1427.9 z" fill="rgb(254,232,125)" transform="translate(0,0)"></path>
<path d="M 1832.33 587.031 C 1846.97 586.46 1853.86 590.127 1857.66 604.668 C 1867.4 605.246 1901.86 605.165 1904.79 614.087 L 1903.5 615.454 C 1894.26 616.008 1867.45 613.951 1856.96 613.479 C 1851.59 622.409 1849.69 625.139 1839.89 628.023 C 1825.45 628.163 1822.44 623.768 1815.31 612.088 C 1807.19 611.217 1767.44 611.896 1766.98 603.298 C 1772.7 598.329 1806.42 602.642 1815.37 603.346 C 1819.75 593.151 1822.16 591.415 1832.33 587.031 z" fill="rgb(254,232,125)" transform="translate(0,0)"></path>
<path d="M 1832.34 597.446 C 1837.81 595.254 1844.03 597.868 1846.29 603.312 C 1848.55 608.755 1846.02 615.005 1840.6 617.335 C 1837.04 618.869 1832.92 618.367 1829.83 616.021 C 1826.74 613.675 1825.15 609.848 1825.67 606.003 C 1826.19 602.157 1828.74 598.889 1832.34 597.446 z" fill="rgb(49,49,60)" transform="translate(0,0)"></path>
<path d="M 1249.96 410.61 C 1264.76 410.65 1396.41 416.905 1405.6 420.532 C 1406.94 424.491 1406.22 427.775 1405.83 431.998 C 1388.02 428.928 1358.86 428.253 1339.81 427.311 C 1309.93 425.671 1280.05 424.2 1250.15 422.899 L 1249.96 410.61 z" fill="rgb(254,232,125)" transform="translate(0,0)"></path>
<path d="M 237.454 1117.45 L 239.632 1117.45 C 250.113 1130.65 242.884 1168.11 231.546 1178.98 C 227.685 1179.89 229.701 1179.83 225.319 1178.15 C 213.607 1160.4 211.165 1140.67 214.188 1120.08 C 221.948 1119.24 229.704 1118.37 237.454 1117.45 z" fill="rgb(254,223,118)" transform="translate(0,0)"></path>
<path d="M 1750.15 832.982 C 1791.28 834.124 1836.05 838.995 1877.29 841.485 C 1877.15 846.216 1876.77 849.487 1876.22 854.168 C 1859.44 853.886 1762.91 845.514 1750.73 841.554 C 1749.06 838.709 1749.79 836.377 1750.15 832.982 z" fill="rgb(254,232,125)" transform="translate(0,0)"></path>
<path d="M 1762.83 1715.93 C 1764.09 1726.17 1771.55 1796.26 1769 1802.57 C 1766.68 1804.42 1767.96 1804 1765.12 1804.02 C 1756.84 1798.21 1762.39 1767.32 1761.38 1757.12 C 1759.8 1741.28 1751.39 1722.8 1757.67 1707.21 C 1761.97 1698.79 1783.57 1711.57 1794.33 1699.42 C 1804.53 1687.9 1796.5 1664.18 1802.52 1657 C 1817.47 1662.94 1804.1 1697.06 1800.71 1707.06 L 1799.47 1707.96 C 1799.37 1705.11 1799.25 1702.59 1799.04 1699.75 C 1798.76 1700 1790.49 1718.79 1790.15 1719.86 L 1789.25 1719.86 C 1784.89 1715.29 1771.6 1716.13 1764.49 1715.96 L 1762.83 1715.93 z" fill="rgb(254,232,125)" transform="translate(0,0)"></path>
<path d="M 1756.73 697.019 C 1768.94 697.159 1880.95 704.045 1884.59 706.013 C 1885.77 709.432 1885.08 713.23 1884.77 716.923 C 1862.31 716.209 1835.48 712.749 1812.49 711.328 C 1799.84 710.546 1769.39 708.695 1757.81 706.529 C 1756.14 703.635 1756.67 700.502 1756.73 697.019 z" fill="rgb(254,232,125)" transform="translate(0,0)"></path>
<path d="M 1802.74 997.206 C 1807.74 1018.45 1805.4 1043.99 1802.96 1065.73 C 1811.14 1066.47 1829.14 1067.32 1832.57 1075.37 C 1826.96 1083.97 1803.99 1080.03 1800.26 1082.02 L 1800.75 1085.16 L 1799.18 1085.22 C 1797.76 1083.29 1798.6 1084.17 1796.61 1082.64 C 1793.22 1085.47 1793.95 1086.25 1791.56 1089.3 C 1792.12 1085.04 1794.03 1084.42 1792.81 1080.82 C 1785.65 1079.03 1765.45 1077.06 1762.68 1069.02 C 1767.25 1063.97 1786.73 1064.99 1793.87 1065.06 C 1794.84 1045.73 1796.85 1015.05 1802.74 997.206 z" fill="rgb(254,232,125)" transform="translate(0,0)"></path>
<path d="M 1854.57 875.149 C 1862.72 874.412 1867.12 874.584 1875.38 874.991 C 1874.9 888.025 1872.93 907.403 1871.01 920.241 C 1863.41 917.552 1860.87 916.563 1853.92 912.604 C 1843.68 906.084 1833.64 897.739 1824.06 890.182 C 1833 883.567 1844.25 879.046 1854.57 875.149 z" fill="rgb(254,232,125)" transform="translate(0,0)"></path>
<path d="M 1750.95 951.815 C 1771.87 952.311 1797.16 955.018 1818.43 956.299 C 1831.72 957.099 1857.89 958.453 1870.17 960.454 C 1871.4 963.393 1870.48 966.026 1869.91 969.292 C 1846.9 968.94 1820.19 965.759 1797 964.324 C 1787.51 963.737 1759.54 961.659 1751.71 959.519 C 1749.67 956.405 1750.49 956.608 1750.95 951.815 z" fill="rgb(254,232,125)" transform="translate(0,0)"></path>
<path d="M 1781.48 930.455 C 1783.98 922.486 1802.35 909.109 1809.84 903.884 L 1833.79 931.42 C 1846.42 932.951 1858.29 934.136 1870.95 935.363 L 1871.84 936.783 C 1867.97 940.775 1848.47 937.423 1842.27 936.924 C 1822.18 935.308 1801.11 931.589 1780.94 932.805 L 1781.48 930.455 z" fill="rgb(254,232,125)" transform="translate(0,0)"></path>
<path d="M 1757.82 864.434 C 1770.55 871.56 1787.31 881.813 1799.48 889.659 L 1783.1 896.959 C 1772.53 901.641 1763.86 905.518 1753.64 911.031 C 1754.82 895.48 1756.22 879.946 1757.82 864.434 z" fill="rgb(254,232,125)" transform="translate(0,0)"></path>
<path d="M 1846.98 393.193 C 1859.24 392.447 1872.37 404.741 1864.26 416.843 C 1861.85 420.43 1844.92 418.775 1839.25 418.495 L 1819.64 417.833 C 1823.54 400.194 1830.4 397.177 1846.98 393.193 z" fill="rgb(254,232,125)" transform="translate(0,0)"></path>
<path d="M 1779.31 1348.43 C 1788.75 1347.97 1821.4 1347.9 1827 1356.36 L 1826.01 1358.13 C 1817.57 1361.77 1800.47 1360.82 1790.68 1360.83 C 1778.8 1360.93 1748.25 1362.65 1740.19 1356 L 1740.49 1354.36 C 1748.58 1349.19 1769.33 1348.88 1779.31 1348.43 z" fill="rgb(254,232,125)" transform="translate(0,0)"></path>
<path d="M 1900.72 394.219 C 1919.9 394.885 1918.28 408.802 1916.47 423.274 C 1911.23 423.156 1905.99 423.011 1900.76 422.839 L 1881.06 420.66 C 1880.5 404.108 1883.52 397.486 1900.72 394.219 z" fill="rgb(254,232,125)" transform="translate(0,0)"></path>
<path d="M 1775.23 744.236 C 1770.38 741.226 1762.98 743.631 1759.63 740.813 C 1759.77 736.684 1759 738.241 1760.99 735.515 C 1772.32 733.939 1819.52 739.919 1834.18 740.43 C 1842.8 740.73 1874.61 742.907 1881.77 744.183 C 1882.83 746.993 1882.51 745.514 1881.45 749.149 C 1879.13 750.737 1878.03 750.654 1874.69 750.417 C 1843.04 748.172 1809.6 744.075 1777.89 743.863 L 1775.23 744.236 z" fill="rgb(254,232,125)" transform="translate(0,0)"></path>
<path d="M 1388.01 364.687 C 1393.81 365.398 1397.16 367.784 1398.75 373.438 C 1401.83 384.439 1402.01 402.385 1388.77 405.958 C 1385.96 405.587 1381.63 405.274 1379.99 402.987 C 1371.88 391.643 1378.56 372.249 1388.01 364.687 z" fill="rgb(254,232,125)" transform="translate(0,0)"></path>
<path d="M 1786.2 387.109 C 1795.66 388.017 1802.92 390.658 1805.93 400.661 C 1807.07 404.352 1806.56 408.357 1804.53 411.642 C 1801.93 415.846 1799.65 416.791 1795.12 417.974 C 1785.89 417.502 1779.23 415.858 1775.64 406.49 C 1771.88 396.696 1777.53 390.216 1786.2 387.109 z" fill="rgb(254,232,125)" transform="translate(0,0)"></path>
<path d="M 1338.95 363.998 C 1346.51 364.585 1351.15 367.324 1353.17 374.7 C 1356.21 385.782 1354.79 395.84 1343.06 399.256 C 1323.04 397.424 1323.19 371.705 1338.95 363.998 z" fill="rgb(254,232,125)" transform="translate(0,0)"></path>
<path d="M 1301.04 362.785 C 1302.87 362.871 1304.69 363.158 1306.47 363.642 C 1318.51 366.954 1319.16 391.95 1306.71 398.406 C 1285.43 396.981 1288.83 373.356 1301.04 362.785 z" fill="rgb(254,232,125)" transform="translate(0,0)"></path>
<path d="M 1265.11 363.564 C 1282.69 363.835 1285.3 388.084 1271.48 395.332 C 1250.75 395.188 1252.9 374.602 1265.11 363.564 z" fill="rgb(254,232,125)" transform="translate(0,0)"></path>
<path d="M 1744.91 1751.47 L 1746.16 1752.76 L 1747.21 1751.67 L 1747.1 1750.35 C 1746.82 1746.83 1746.41 1745.31 1747.71 1742.02 L 1749.38 1741.59 C 1754.61 1746.04 1750.57 1760.62 1746.1 1765.04 C 1722.17 1784.41 1719.14 1732.69 1744.91 1751.47 z" fill="rgb(49,49,60)" transform="translate(0,0)"></path>
<path d="M 1746.1 1765.04 C 1722.17 1784.41 1719.14 1732.69 1744.91 1751.47 C 1742.08 1752.95 1741.44 1752.78 1739.86 1755.22 C 1737.34 1755.04 1736.22 1754.24 1734.04 1753.06 C 1730.84 1753.94 1732.16 1753.11 1730 1755.72 C 1730.53 1763.47 1737.79 1764.93 1744.28 1764.44 L 1745.31 1764.36 L 1746.1 1765.04 z" fill="rgb(254,232,125)" transform="translate(0,0)"></path>
<path d="M 1744.91 1751.47 L 1746.16 1752.76 L 1747.21 1751.67 L 1747.1 1750.35 C 1746.82 1746.83 1746.41 1745.31 1747.71 1742.02 L 1749.38 1741.59 C 1754.61 1746.04 1750.57 1760.62 1746.1 1765.04 L 1745.31 1764.36 C 1747.17 1760.74 1747.45 1760.1 1746.12 1756.5 C 1742.38 1754.52 1744.36 1755.05 1739.86 1755.22 C 1741.44 1752.78 1742.08 1752.95 1744.91 1751.47 z" fill="rgb(254,232,125)" transform="translate(0,0)"></path>
<path d="M 1742.75 1430.77 C 1756.46 1425.78 1790.78 1421.19 1803.89 1427.9 L 1802.63 1430.97 C 1785.97 1435.57 1759.66 1435.15 1742.75 1430.77 z" fill="rgb(254,232,125)" transform="translate(0,0)"></path>
<path d="M 1817.59 755.116 C 1820.11 752.792 1821.09 751.498 1824.39 750.497 L 1826.29 751.182 C 1828.22 755.621 1826.4 761.681 1822.25 764.226 L 1820.31 763.519 L 1818.98 760.539 C 1817.64 763.763 1816.24 766.059 1816.61 769.457 C 1818.48 772.378 1821.01 772.693 1823.63 774.142 C 1829.94 777.631 1817.86 793.308 1814.49 796.666 L 1813.14 796.398 C 1809.7 788.016 1815.24 787.219 1817.31 779.368 C 1806.18 770.936 1809.37 765.019 1817.59 755.116 z" fill="rgb(254,232,125)" transform="translate(0,0)"></path>
<path d="M 1787.58 1734.54 C 1800.9 1736.22 1802.44 1752.27 1794.92 1761.97 C 1780.16 1754.32 1775.97 1748.42 1787.58 1734.54 z" fill="rgb(254,232,125)" transform="translate(0,0)"></path>
<path d="M 1855.01 789.295 C 1850.58 785.17 1848.4 781.949 1851.62 776.185 C 1855.31 774.223 1853.42 774.525 1857.46 775.116 C 1860.05 777.259 1860.33 779.702 1861.33 783.001 L 1863.02 784.007 C 1869.92 782.066 1875.48 776.503 1880.23 779.152 C 1881.33 782.311 1881.03 782.476 1880.36 785.685 L 1878.73 787.723 C 1875.8 787.256 1860.13 788.817 1856.37 789.568 L 1855.01 789.295 z" fill="rgb(254,232,125)" transform="translate(0,0)"></path>
<path d="M 1764.98 1385.59 C 1779.97 1383.94 1795.13 1384.47 1809.97 1387.17 C 1802.3 1388.69 1797.99 1389.45 1790.25 1389.98 C 1771.87 1390.38 1762.45 1390.62 1743.98 1387.86 L 1764.98 1385.59 z" fill="rgb(254,232,125)" transform="translate(0,0)"></path>
<path d="M 1775.23 744.236 L 1777.89 743.863 C 1777.99 755.109 1775.71 781.443 1778.79 789.473 L 1780.69 791.05 C 1783.42 790.314 1783.91 789.469 1786.02 787.543 L 1787.45 787.914 L 1787.87 790.031 C 1784.41 795.18 1773.15 795.038 1767.59 794.763 L 1766.38 793.867 L 1766.83 792.242 C 1769.41 791.009 1773.05 790.007 1773.35 787.272 C 1774.76 774.127 1773.82 756.925 1775.23 744.236 z" fill="rgb(254,232,125)" transform="translate(0,0)"></path>
<path d="M 1794.02 865.108 C 1804.45 866.674 1814.98 870.572 1822.34 878.484 L 1821.55 880.11 L 1811.2 885.003 C 1805.96 878.448 1799.59 871.482 1794.02 865.108 z" fill="rgb(254,232,125)" transform="translate(0,0)"></path>
<path d="M 1732.8 1448.41 C 1740.62 1447.12 1775.97 1446.88 1783.11 1449.66 L 1783.85 1451.48 C 1769.93 1453.84 1745.84 1454.4 1732.8 1448.41 z" fill="rgb(254,232,125)" transform="translate(0,0)"></path>
<path d="M 1718.06 1707.49 C 1723.02 1708.25 1729.52 1710.23 1728.88 1716.3 L 1726.88 1717.56 C 1723.31 1717.37 1724.37 1717.35 1720.98 1714.45 C 1719.19 1716.2 1720.42 1719.67 1719.56 1724.26 L 1718.79 1726.18 L 1716.98 1726.74 C 1716.93 1728.94 1717.31 1728.1 1716.31 1729.44 C 1716.05 1727.78 1715.77 1726.12 1715.47 1724.47 L 1713.55 1723.52 L 1711.43 1725.29 L 1709.94 1724.72 L 1709.49 1722.53 C 1711.08 1716.33 1713.45 1711.9 1718.06 1707.49 z" fill="rgb(254,232,125)" transform="translate(0,0)"></path>
<path d="M 1855.01 789.295 L 1856.37 789.568 C 1860.3 795.256 1871.35 802.936 1869.41 809.703 L 1867.28 809.587 C 1860.58 803.482 1854.17 798.897 1855.01 789.295 z" fill="rgb(254,223,118)" transform="translate(0,0)"></path>
<path d="M 1265.45 1294.21 C 1274.2 1296.74 1271.78 1303.58 1267 1308.65 C 1263.09 1308.32 1262.56 1307.03 1261.46 1303.8 C 1262.15 1299.02 1262.82 1298.46 1265.45 1294.21 z" fill="rgb(254,232,125)" transform="translate(0,0)"></path>
<path d="M 1780.94 932.805 C 1775.1 932.819 1757.82 932.568 1752.96 929.879 C 1761.31 928.463 1773.06 929.425 1781.48 930.455 L 1780.94 932.805 z" fill="rgb(254,232,125)" transform="translate(0,0)"></path>
<path d="M 1790.15 1719.86 L 1791.74 1721.62 C 1792.68 1725.58 1789.81 1730.28 1785.69 1730.85 L 1785.09 1728.73 C 1786.16 1724.12 1786.51 1723.87 1789.25 1719.86 L 1790.15 1719.86 z" fill="rgb(254,232,125)" transform="translate(0,0)"></path>
<path d="M 613.692 1848.6 C 615.268 1844.37 618.736 1842.42 622.442 1840.02 L 622.322 1841.86 C 619.671 1844.34 616.99 1846.79 614.279 1849.2 L 613.692 1848.6 z" fill="rgb(66,64,77)" transform="translate(0,0)"></path>
<metadata><recraft-signature>{"signed_by": "recraft", "signature_b64": "QcG4c3tNQDmnrjihvRd4oFwBRJtdASjouyADyASpEr+esn1I2UjQ2DYibsC+Krm2KS8xewdnKf04a/fq1Nb/Cg==", "signing_algo": "Ed25519", "generation_timestamp": 1783270567, "identifier": "e184342f-716d-4fac-b8f0-dba8243510c7"}</recraft-signature></metadata></svg>